<svg aria-hidden="true" style="position: absolute; width: 0; height: 0; overflow: hidden;" version="1.1" xmlns="http://www.w3.org/2000/svg" xmlns:xlink="http://www.w3.org/1999/xlink">
<defs>

<symbol id="close" viewBox="0 0 32 32">
<path d="M26.667 7.303l-1.97-1.97-7.808 7.808-7.808-7.808-1.97 1.97 7.808 7.808-7.808 7.808 1.97 1.97 7.808-7.808 7.808 7.808 1.97-1.97-7.808-7.808 7.808-7.808z"></path>
</symbol>

<symbol id="cloud" viewBox="0 0 32 32">
<path d="M20 4c-5.2 0-9.6 3.333-11.333 8h-0.667c-4.4 0-8 3.6-8 8s3.6 8 8 8h12c6.667 0 12-5.333 12-12s-5.333-12-12-12zM20 25.333h-12c-2.933 0-5.333-2.4-5.333-5.333s2.4-5.333 5.333-5.333h2.8c0.667-4.533 4.533-8 9.2-8 5.2 0 9.333 4.133 9.333 9.333s-4.133 9.333-9.333 9.333z"></path>
</symbol>

<symbol id="film" viewBox="0 0 32 32">
<path d="M22.667 13.067v-2.4c0-2.267-1.733-4-4-4h-14.667c-2.267 0-4 1.733-4 4v10.667c0 2.267 1.733 4 4 4h14.667c2.267 0 4-1.733 4-4v-2.4l9.333 5.067v-16l-9.333 5.067zM20 21.333c0 0.8-0.533 1.333-1.333 1.333h-14.667c-0.8 0-1.333-0.533-1.333-1.333v-10.667c0-0.8 0.533-1.333 1.333-1.333h14.667c0.8 0 1.333 0.533 1.333 1.333v10.667zM29.333 19.467l-6.4-3.467 6.4-3.467v6.933z"></path>
</symbol>

<symbol id="hinge" viewBox="0 0 32 32">
<path d="M16 10.667c-2.933 0-5.333 2.4-5.333 5.333s2.4 5.333 5.333 5.333c2.933 0 5.333-2.4 5.333-5.333s-2.4-5.333-5.333-5.333zM16 18.667c-1.467 0-2.667-1.2-2.667-2.667s1.2-2.667 2.667-2.667c1.467 0 2.667 1.2 2.667 2.667s-1.2 2.667-2.667 2.667zM28 20c2.267 0 4-1.733 4-4s-1.733-4-4-4h-0.667c-0.133-0.4-0.267-0.8-0.533-1.2l0.533-0.533c1.6-1.6 1.6-4.133 0-5.6-1.6-1.6-4.133-1.6-5.6 0l-0.533 0.533c-0.4-0.133-0.8-0.4-1.2-0.533v-0.667c0-2.267-1.733-4-4-4s-4 1.733-4 4v0.667c-0.4 0.133-0.8 0.267-1.2 0.533l-0.533-0.533c-1.6-1.6-4.133-1.6-5.6 0-1.6 1.6-1.6 4.133 0 5.6l0.533 0.533c-0.133 0.4-0.4 0.8-0.533 1.2h-0.667c-2.267 0-4 1.733-4 4s1.733 4 4 4h0.667c0.133 0.4 0.267 0.8 0.533 1.2l-0.533 0.533c-1.6 1.6-1.6 4.133 0 5.6 1.6 1.6 4.133 1.6 5.6 0l0.533-0.533c0.4 0.133 0.8 0.4 1.2 0.533v0.667c0 2.267 1.733 4 4 4s4-1.733 4-4v-0.667c0.4-0.133 0.8-0.267 1.2-0.533l0.533 0.533c1.6 1.6 4.133 1.6 5.6 0 1.6-1.6 1.6-4.133 0-5.6l-0.533-0.533c0.133-0.4 0.4-0.8 0.533-1.2h0.667zM25.333 23.467c0.533 0.533 0.533 1.467 0 2s-1.333 0.533-1.867 0l-1.867-1.867c-1.2 0.933-2.667 1.6-4.267 1.733v2.667c0 0.8-0.533 1.333-1.333 1.333s-1.333-0.533-1.333-1.333v-2.8c-1.6-0.267-3.067-0.8-4.267-1.733l-1.867 1.867c-0.533 0.533-1.333 0.533-1.867 0s-0.533-1.333 0-1.867l1.867-1.867c-0.933-1.2-1.6-2.667-1.733-4.267h-2.8c-0.8 0-1.333-0.533-1.333-1.333s0.533-1.333 1.333-1.333h2.8c0.267-1.6 0.8-3.067 1.733-4.267l-1.867-1.867c-0.533-0.533-0.533-1.333 0-1.867s1.333-0.533 1.867 0l1.867 1.867c1.2-0.933 2.667-1.6 4.267-1.733v-2.8c0-0.8 0.533-1.333 1.333-1.333s1.333 0.533 1.333 1.333v2.8c1.6 0.267 3.067 0.8 4.267 1.733l1.867-1.867c0.533-0.533 1.333-0.533 1.867 0s0.533 1.333 0 1.867l-1.867 1.867c0.933 1.2 1.6 2.667 1.733 4.267h2.8c0.8 0 1.333 0.533 1.333 1.333s-0.533 1.333-1.333 1.333h-2.8c-0.267 1.6-0.8 3.067-1.733 4.267l1.867 1.867z"></path>
</symbol>

<symbol id="logo" viewBox="0 0 32 32">
<path d="M0.059 18.824v-5.718h0.784v5.718h-0.784zM2.003 18.824v-5.718h0.544l1.624 3.798v-3.798h0.664v5.718h-0.508l-1.645-3.904v3.904h-0.678zM7.4 18.887c-0.405 0-0.72-0.085-0.946-0.254-0.221-0.169-0.376-0.398-0.466-0.685-0.085-0.287-0.127-0.607-0.127-0.96v-2.019c0-0.386 0.042-0.722 0.127-1.009 0.089-0.287 0.245-0.508 0.466-0.664 0.226-0.16 0.541-0.24 0.946-0.24 0.358 0 0.64 0.066 0.847 0.198 0.212 0.132 0.362 0.32 0.452 0.565 0.094 0.245 0.141 0.539 0.141 0.882v0.452h-0.755v-0.402c0-0.212-0.012-0.398-0.035-0.558-0.019-0.165-0.075-0.292-0.169-0.381s-0.252-0.134-0.473-0.134c-0.226 0-0.391 0.049-0.494 0.148-0.104 0.094-0.172 0.231-0.205 0.409-0.028 0.174-0.042 0.379-0.042 0.614v2.266c0 0.287 0.024 0.515 0.071 0.685 0.047 0.165 0.125 0.282 0.233 0.353s0.254 0.106 0.438 0.106c0.216 0 0.372-0.047 0.466-0.141 0.094-0.099 0.153-0.233 0.176-0.402s0.035-0.367 0.035-0.593v-0.424h0.755v0.424c0 0.348-0.042 0.656-0.127 0.925-0.085 0.264-0.231 0.471-0.438 0.621-0.207 0.146-0.499 0.219-0.875 0.219zM9.836 18.824v-5.718h1.151c0.381 0 0.696 0.052 0.946 0.155 0.249 0.099 0.433 0.261 0.551 0.487 0.122 0.221 0.184 0.513 0.184 0.875 0 0.221-0.024 0.424-0.071 0.607-0.047 0.179-0.122 0.332-0.226 0.459-0.104 0.122-0.24 0.212-0.409 0.268l0.812 2.866h-0.769l-0.748-2.682h-0.621v2.682h-0.798zM10.633 15.569h0.304c0.226 0 0.409-0.028 0.551-0.085s0.245-0.153 0.311-0.289c0.066-0.136 0.099-0.327 0.099-0.572 0-0.334-0.061-0.574-0.184-0.72-0.122-0.151-0.365-0.226-0.727-0.226h-0.353v1.892zM13.731 18.824v-5.718h2.216v0.593h-1.419v1.892h1.151v0.565h-1.151v2.096h1.433v0.572h-2.231zM16.841 18.824v-5.718h1.242c0.424 0 0.758 0.066 1.002 0.198 0.249 0.127 0.426 0.32 0.529 0.579 0.108 0.259 0.162 0.581 0.162 0.967v2.104c0 0.405-0.054 0.746-0.162 1.024-0.104 0.278-0.275 0.489-0.515 0.635-0.235 0.141-0.553 0.212-0.953 0.212h-1.306zM17.639 18.252h0.452c0.292 0 0.499-0.056 0.621-0.169s0.195-0.278 0.219-0.494c0.028-0.216 0.042-0.478 0.042-0.784v-1.856c0-0.296-0.019-0.536-0.056-0.72s-0.12-0.318-0.247-0.402c-0.127-0.085-0.327-0.127-0.6-0.127h-0.431v4.553zM20.841 18.824v-5.718h0.784v5.718h-0.784zM22.785 18.824v-5.718h1.313c0.259 0 0.482 0.028 0.671 0.085 0.193 0.056 0.353 0.144 0.48 0.261s0.221 0.268 0.282 0.452c0.061 0.179 0.092 0.391 0.092 0.635 0 0.235-0.031 0.44-0.092 0.614-0.056 0.169-0.146 0.304-0.268 0.402-0.118 0.099-0.271 0.162-0.459 0.191 0.231 0.052 0.416 0.141 0.558 0.268 0.141 0.122 0.245 0.282 0.311 0.48 0.071 0.193 0.106 0.426 0.106 0.699 0 0.245-0.028 0.468-0.085 0.671s-0.146 0.374-0.268 0.515c-0.118 0.141-0.271 0.252-0.459 0.332-0.184 0.075-0.402 0.113-0.656 0.113h-1.525zM23.583 18.252h0.536c0.358 0 0.595-0.082 0.713-0.247 0.122-0.169 0.184-0.44 0.184-0.812 0-0.24-0.033-0.44-0.099-0.6-0.061-0.165-0.162-0.287-0.304-0.367-0.136-0.085-0.322-0.127-0.558-0.127h-0.473v2.153zM23.583 15.492h0.473c0.226 0 0.402-0.031 0.529-0.092 0.127-0.066 0.216-0.169 0.268-0.311s0.078-0.325 0.078-0.551c0-0.264-0.040-0.454-0.12-0.572s-0.205-0.191-0.374-0.219c-0.169-0.033-0.391-0.049-0.664-0.049h-0.191v1.793zM26.722 18.824v-5.718h0.798v5.146h1.461v0.572h-2.259zM29.763 18.824v-5.718h2.216v0.593h-1.419v1.892h1.151v0.565h-1.151v2.096h1.433v0.572h-2.231z"></path>
</symbol>

<symbol id="menu-burge" viewBox="0 0 32 32">
<path d="M0 14h32v4h-32v-4z"></path>
<path d="M0 4.667h32v4h-32v-4z"></path>
<path d="M0 23.333h32v4h-32v-4z"></path>
</symbol>

<symbol id="facebook" viewBox="0 0 32 32">
<path d="M27.467 0.883h-23.8c-1.927 0-3.4 1.473-3.4 3.4v23.8c0 1.927 1.473 3.4 3.4 3.4h11.9v-11.9h-3.4v-4.193h3.4v-3.513c0-3.627 2.040-6.233 6.347-6.233h3.060v4.42h-2.040c-1.7 0-2.38 1.247-2.38 2.493v2.833h4.42l-0.907 4.193h-3.4v11.9h6.8c1.927 0 3.4-1.473 3.4-3.4v-23.8c0-1.927-1.473-3.4-3.4-3.4z"></path>
</symbol>

<symbol id="twitter" viewBox="0 0 32 32">
<path d="M27.947 10.005c0 0.213 0 0.533 0 0.747 0 8-6.080 17.173-17.173 17.173-3.413 0-6.613-0.96-9.28-2.667 0.427 0 0.96 0.107 1.493 0.107 2.88 0 5.44-0.96 7.467-2.56-2.667 0-4.907-1.813-5.653-4.16 0.32 0.107 0.747 0.107 1.173 0.107 0.533 0 1.067-0.107 1.6-0.213-2.773-0.64-4.907-3.093-4.907-5.973 0 0 0 0 0-0.107 0.853 0.427 1.707 0.747 2.773 0.747-1.6-1.067-2.667-2.88-2.667-5.013 0-1.067 0.32-2.133 0.853-2.987 2.987 3.627 7.467 6.080 12.48 6.293-0.107-0.427-0.107-0.853-0.107-1.387 0-3.307 2.667-6.080 6.080-6.080 1.707 0 3.307 0.747 4.373 1.92 1.387-0.32 2.667-0.747 3.84-1.493-0.427 1.387-1.387 2.56-2.667 3.307 1.067-0.107 2.24-0.427 3.307-0.853-0.853 1.173-1.813 2.24-2.987 3.093z"></path>
</symbol>

<symbol id="ball" viewBox="0 0 32 32">
<path d="M29.013 10.733c-1.173-2.56-2.88-4.8-5.227-6.4s-5.12-2.56-8.107-2.56c-2.133 0-4.053 0.533-5.547 1.067-2.56 1.067-4.8 2.88-6.4 5.333s-2.667 5.12-2.667 8.213c0 2.027 0.427 4.053 1.173 5.547 1.173 2.56 2.88 4.8 5.227 6.4s5.12 2.56 8.213 2.56c2.027 0 4.053-0.533 5.547-1.067 2.56-1.173 4.8-2.88 6.4-5.333s2.56-5.12 2.56-8.107c0-2.133-0.32-4.053-1.173-5.653zM22.613 25.133c-0.32-1.493-0.853-3.84-1.92-6.933 0.427 0 1.173-0.213 1.6-0.213 1.28 0 2.347 0.213 3.307 0.32 0.32 0 0.64 0.213 0.96 0.213-0.32 1.387-0.853 2.56-1.6 3.84-0.533 0.96-1.28 2.027-2.347 2.773zM26.88 15.426c-0.32 0-0.64-0.213-1.173-0.213-0.96-0.107-2.24-0.32-3.627-0.32-0.853 0-1.6 0-2.347 0.213v-0.213c-0.213-0.32-0.32-0.853-0.533-1.067 2.133-0.96 3.733-2.133 4.693-2.88 0.427-0.533 0.853-0.853 1.173-1.067 0.96 1.493 1.6 3.413 1.813 5.547zM21.44 8.706c-0.853 0.533-2.133 1.6-3.84 2.133-0.96-1.707-1.92-3.2-2.667-4.267-0.427-0.533-0.747-0.96-1.067-1.387 0.427-0.213 1.173-0.213 1.813-0.213 2.667 0 5.12 0.96 7.040 2.347-0.32 0.533-0.64 0.853-1.28 1.387zM10.347 6.466c0.64 0.96 2.133 3.093 3.733 5.547-4.053 0.96-7.68 1.173-9.28 1.28 0.533-1.493 1.173-2.667 2.133-3.84 0.853-1.28 2.133-2.347 3.413-2.987zM8.747 16.386c2.133-0.213 4.48-0.64 6.933-1.28 0.107 0.32 0.32 0.64 0.427 0.96-1.6 0.533-2.987 1.28-4.16 2.133-1.92 1.28-3.2 2.667-4.16 4.053-0.32 0.32-0.64 0.853-0.96 1.173-1.387-1.813-2.24-4.16-2.347-6.613 0.747-0.107 2.347-0.32 4.267-0.427zM11.2 23.106c1.28-1.28 3.413-2.88 6.293-4.053 1.28 3.52 1.92 6.4 2.24 7.787-1.28 0.533-2.56 0.64-4.053 0.64-2.347 0-4.693-0.853-6.613-2.133 0.32-0.32 0.96-1.28 2.133-2.24z"></path>
</symbol>

<symbol id="be" viewBox="0 0 32 32">
<path d="M12.907 15.532c0 0 2.987-0.213 2.987-3.947 0.107-3.733-2.453-5.547-5.547-5.547h-10.347v20.693h10.347c0 0 6.293 0.213 6.293-6.080 0 0 0.32-5.12-3.733-5.12zM4.587 9.666h5.76c0 0 1.387 0 1.387 2.133s-0.853 2.453-1.813 2.453h-5.333v-4.587zM10.027 22.999h-5.44v-5.547h5.76c0 0 2.133 0 2.133 2.88-0.107 2.453-1.6 2.667-2.453 2.667zM25.067 11.266c-7.68 0-7.68 8-7.68 8s-0.533 7.893 7.68 7.893c0 0 6.827 0.427 6.827-5.547h-3.52c0 0 0.107 2.24-3.2 2.24 0 0-3.52 0.213-3.52-3.627h10.24c0 0 1.173-8.96-6.827-8.96zM28.16 17.559h-6.507c0 0 0.427-3.2 3.52-3.2s2.987 3.2 2.987 3.2zM29.013 7.212h-8.213v2.56h8.213v-2.56z"></path>
</symbol>

<symbol id="w" viewBox="0 0 32 32">
<path d="M23.36 11.925c0 0-2.347 7.467-2.56 8-0.107-0.64-1.813-13.973-1.813-13.973-4.053 0-6.187 2.88-7.36 5.867 0 0-2.88 7.467-3.093 8.107 0-0.533-0.427-8-0.427-8-0.213-3.733-3.627-5.973-6.4-5.973l3.307 20.16c4.267 0 6.507-2.88 7.68-5.867 0 0 2.56-6.613 2.667-6.827 0 0.32 1.813 12.8 1.813 12.8 4.267 0 6.507-2.667 7.787-5.653l5.973-14.613c-4.16 0-6.4 2.88-7.573 5.973z"></path>
</symbol>

<symbol id="instagram" viewBox="0 0 32 32">
<path d="M28.333 0.017h-23.8c-1.927 0-3.4 1.473-3.4 3.4v23.8c0 1.927 1.473 3.4 3.4 3.4h23.8c1.927 0 3.4-1.473 3.4-3.4v-23.8c0-1.927-1.473-3.4-3.4-3.4zM16.433 24.723c5.213 0 9.407-4.193 9.407-9.407 0-0.567-0.113-1.133-0.227-1.7h2.72v12.24c0 0.68-0.567 1.133-1.133 1.133h-21.533c-0.68 0-1.133-0.567-1.133-1.133v-12.24h2.607c-0.113 0.567-0.227 1.133-0.227 1.7 0.113 5.213 4.307 9.407 9.52 9.407zM10.54 15.317c0-3.287 2.607-5.893 5.893-5.893s5.893 2.607 5.893 5.893c0 3.287-2.607 5.893-5.893 5.893s-5.893-2.72-5.893-5.893zM27.2 8.517h-2.72c-0.68 0-1.133-0.567-1.133-1.133v-2.833c0-0.68 0.567-1.133 1.133-1.133h2.72c0.68 0 1.133 0.567 1.133 1.133v2.72c0 0.68-0.567 1.247-1.133 1.247z"></path>
</symbol>

<symbol id="mail" viewBox="0 0 32 32">
<path d="M30.827 4.583c-0.213-0.853-1.067-1.493-2.027-1.493h-25.6c-0.96 0-1.813 0.64-2.027 1.493l14.827 13.44 14.827-13.44zM23.68 15.357l7.253 6.507v-13.013l-7.253 6.507zM16 22.29l-5.333-4.8-9.493 8.533c0.213 0.96 1.067 1.6 2.027 1.6h25.6c0.96 0 1.813-0.64 2.027-1.493l-9.493-8.533-5.333 4.693zM1.067 8.85v13.013l7.253-6.507-7.253-6.507z"></path>
</symbol>

<symbol id="window" viewBox="0 0 32 32">
<path d="M27.532 0.144h-23.063c-2.45 0-4.324 1.874-4.324 4.324v23.063c0 2.45 1.874 4.324 4.324 4.324h23.063c2.45 0 4.324-1.874 4.324-4.324v-23.063c0-2.45-1.874-4.324-4.324-4.324zM10.234 28.973h-5.766c-0.865 0-1.441-0.577-1.441-1.441v-15.856h7.207v17.297zM28.973 27.532c0 0.865-0.577 1.441-1.441 1.441h-14.414v-17.297h15.856v15.856zM28.973 8.793h-25.946v-4.324c0-0.865 0.577-1.441 1.441-1.441h23.063c0.865 0 1.441 0.577 1.441 1.441v4.324z"></path>
</symbol>

<symbol id="logo-1" viewBox="0 0 167 32">
<path d="M0.308 30.769v-29.908h4.098v29.908h-4.098zM10.476 30.769v-29.908h2.843l8.492 19.865v-19.865h3.471v29.908h-2.658l-8.603-20.418v20.418h-3.545zM38.71 31.102c-2.117 0-3.766-0.443-4.948-1.329-1.157-0.886-1.969-2.080-2.437-3.582-0.443-1.502-0.665-3.175-0.665-5.022v-10.56c0-2.018 0.222-3.778 0.665-5.28 0.468-1.502 1.28-2.658 2.437-3.471 1.182-0.837 2.831-1.255 4.948-1.255 1.871 0 3.348 0.345 4.431 1.034 1.108 0.689 1.895 1.674 2.363 2.954 0.492 1.28 0.738 2.818 0.738 4.615v2.363h-3.951v-2.105c0-1.108-0.062-2.080-0.185-2.917-0.098-0.862-0.394-1.526-0.886-1.994s-1.317-0.702-2.474-0.702c-1.182 0-2.043 0.258-2.585 0.775-0.542 0.492-0.898 1.206-1.071 2.142-0.148 0.911-0.222 1.982-0.222 3.212v11.852c0 1.502 0.123 2.695 0.369 3.582 0.246 0.862 0.652 1.477 1.218 1.846s1.329 0.554 2.289 0.554c1.132 0 1.945-0.246 2.437-0.738 0.492-0.517 0.8-1.218 0.923-2.105s0.185-1.92 0.185-3.102v-2.215h3.951v2.215c0 1.822-0.222 3.434-0.665 4.837-0.443 1.378-1.206 2.462-2.289 3.249-1.083 0.763-2.609 1.145-4.578 1.145zM51.447 30.769v-29.908h6.018c1.994 0 3.643 0.271 4.948 0.812 1.305 0.517 2.265 1.366 2.88 2.548 0.64 1.157 0.96 2.683 0.96 4.578 0 1.157-0.123 2.215-0.369 3.175-0.246 0.935-0.64 1.735-1.182 2.4-0.542 0.64-1.255 1.108-2.142 1.403l4.246 14.991h-4.025l-3.914-14.031h-3.249v14.031h-4.172zM55.62 13.748h1.588c1.182 0 2.142-0.148 2.88-0.443s1.28-0.8 1.625-1.514c0.345-0.714 0.517-1.711 0.517-2.991 0-1.748-0.32-3.003-0.96-3.766-0.64-0.788-1.908-1.182-3.803-1.182h-1.846v9.895zM71.825 30.769v-29.908h11.594v3.102h-7.422v9.895h6.018v2.954h-6.018v10.966h7.495v2.991h-11.668zM88.092 30.769v-29.908h6.498c2.215 0 3.963 0.345 5.243 1.034 1.305 0.665 2.228 1.674 2.769 3.028 0.566 1.354 0.849 3.040 0.849 5.058v11.003c0 2.117-0.283 3.902-0.849 5.354-0.542 1.452-1.44 2.56-2.695 3.323-1.231 0.738-2.892 1.108-4.985 1.108h-6.831zM92.264 27.778h2.363c1.526 0 2.609-0.295 3.249-0.886s1.022-1.452 1.145-2.585c0.148-1.132 0.222-2.498 0.222-4.098v-9.711c0-1.551-0.098-2.806-0.295-3.766s-0.628-1.662-1.292-2.105c-0.665-0.443-1.711-0.665-3.138-0.665h-2.252v23.815zM109.015 30.769v-29.908h4.098v29.908h-4.098zM119.183 30.769v-29.908h6.867c1.354 0 2.523 0.148 3.508 0.443 1.009 0.295 1.846 0.751 2.511 1.366s1.157 1.403 1.477 2.363c0.32 0.935 0.48 2.043 0.48 3.323 0 1.231-0.16 2.302-0.48 3.212-0.295 0.886-0.763 1.588-1.403 2.105-0.615 0.517-1.415 0.849-2.4 0.997 1.206 0.271 2.178 0.738 2.917 1.403 0.738 0.64 1.28 1.477 1.625 2.511 0.369 1.009 0.554 2.228 0.554 3.655 0 1.28-0.148 2.449-0.443 3.508s-0.763 1.957-1.403 2.695c-0.615 0.738-1.415 1.317-2.4 1.735-0.96 0.394-2.105 0.591-3.434 0.591h-7.975zM123.355 27.778h2.806c1.871 0 3.114-0.431 3.729-1.292 0.64-0.886 0.96-2.302 0.96-4.246 0-1.255-0.172-2.302-0.517-3.138-0.32-0.862-0.849-1.502-1.588-1.92-0.714-0.443-1.686-0.665-2.917-0.665h-2.474v11.262zM123.355 13.342h2.474c1.182 0 2.105-0.16 2.769-0.48 0.665-0.345 1.132-0.886 1.403-1.625s0.406-1.698 0.406-2.88c0-1.378-0.209-2.375-0.628-2.991s-1.071-0.997-1.957-1.145c-0.886-0.172-2.043-0.258-3.471-0.258h-0.997v9.378zM139.777 30.769v-29.908h4.172v26.917h7.643v2.991h-11.815zM155.684 30.769v-29.908h11.594v3.102h-7.422v9.895h6.018v2.954h-6.018v10.966h7.495v2.991h-11.668z"></path>
</symbol>

</defs>
</svg>
